<?xml version="1.0" encoding="UTF-8" standalone="no"?>
<svg width="2320px" height="1840px" viewBox="0 0 2320 1840" version="1.1" xmlns="http://www.w3.org/2000/svg" xmlns:xlink="http://www.w3.org/1999/xlink" xmlns:sketch="http://www.bohemiancoding.com/sketch/ns">
    <!-- Generator: Sketch 3.3.3 (12072) - http://www.bohemiancoding.com/sketch -->
    <title>gsn-logo-red</title>
    <desc>Created with Sketch.</desc>
    <defs>
        <filter x="-50%" y="-50%" width="200%" height="200%" filterUnits="objectBoundingBox" id="filter-1">
            <feMorphology radius="23" in="SourceAlpha" operator="dilate" result="shadowSpreadOuter1"></feMorphology>
            <feOffset dx="0" dy="0" in="shadowSpreadOuter1" result="shadowOffsetOuter1"></feOffset>
            <feGaussianBlur stdDeviation="12.5" in="shadowOffsetOuter1" result="shadowBlurOuter1"></feGaussianBlur>
            <feColorMatrix values="0 0 0 0 1   0 0 0 0 0   0 0 0 0 0  0 0 0 0.7 0" in="shadowBlurOuter1" type="matrix" result="shadowMatrixOuter1"></feColorMatrix>
            <feMerge>
                <feMergeNode in="shadowMatrixOuter1"></feMergeNode>
                <feMergeNode in="SourceGraphic"></feMergeNode>
            </feMerge>
        </filter>
        <filter x="-50%" y="-50%" width="200%" height="200%" filterUnits="objectBoundingBox" id="filter-2">
            <feOffset dx="0" dy="0" in="SourceAlpha" result="shadowOffsetOuter1"></feOffset>
            <feGaussianBlur stdDeviation="19" in="shadowOffsetOuter1" result="shadowBlurOuter1"></feGaussianBlur>
            <feColorMatrix values="0 0 0 0 1   0 0 0 0 0   0 0 0 0 0  0 0 0 0.7 0" in="shadowBlurOuter1" type="matrix" result="shadowMatrixOuter1"></feColorMatrix>
            <feMerge>
                <feMergeNode in="shadowMatrixOuter1"></feMergeNode>
                <feMergeNode in="SourceGraphic"></feMergeNode>
            </feMerge>
        </filter>
    </defs>
    <g id="Page-1" stroke="none" stroke-width="1" fill="none" fill-rule="evenodd" sketch:type="MSPage">
        <g id="gsn-logo-red" sketch:type="MSArtboardGroup">
            <g id="Group" sketch:type="MSLayerGroup" transform="translate(184.000000, 132.000000)">
                <path d="M305.276679,662.304063 C132.648771,626.504514 48.4208552,730.492449 62.6871689,816.601858 C85.1656242,952.278567 103.196794,960.690147 158.522297,1115.53432 C95.5642997,1044.92073 23.3901502,955.908965 1.72905338,808.609095 C-14.0277907,701.459345 80.4562846,614.013388 181.359398,594.693404 C237.818318,583.883178 285.098825,579.149845 334.19829,594.520001 C321.803317,508.661932 311.062602,453.808766 370.574415,354.848071 C406.388551,295.293648 464.34333,268.754969 519.51805,247.636079 C576.488828,225.829722 608.802728,226.031816 678.411188,228.883989 C773.108961,232.764185 822.521367,297.794262 828.304623,358.844447 C841.716362,500.423713 736.867094,549.578072 733.465327,559.709454 C729.218039,572.359028 800.819475,458.200516 762.617694,345.715709 C741.934827,284.815186 675.520481,269.38087 586.247485,290.172249 C501.065342,310.010882 452.440567,334.40555 406.62133,406.129752 C366.35845,469.15618 395.390977,600.542457 414.884652,607.802743 C514.692857,644.975624 658.397957,728.862117 782.560755,686.282352 C892.437271,648.601853 881.668598,627.724064 933.382139,550.210914 C994.28044,458.930777 1120,345.715709 1120,345.715709 C1120,345.715709 1042.32253,440.624418 1008.20773,520.651068 C977.835285,591.898909 960.711249,666.773752 878.665441,724.787224 C825.275798,762.538312 758.486045,795.020508 668.348381,754.938947 C738.597987,852.822977 671.217475,923.284267 563.587915,928.906433 C464.105682,934.103013 427.969424,836.583774 427.969424,836.583774 C427.969424,836.583774 636.083891,916.362957 616.797572,804.612713 C608.139905,754.447799 475.146454,697.53163 305.276679,662.304063 Z M1646.72332,912.764583 C1819.35123,948.564131 1903.57914,844.576196 1889.31283,758.466787 C1866.83438,622.790078 1848.80321,614.378498 1793.4777,459.534323 C1856.4357,530.147919 1928.60985,619.15968 1950.27095,766.459551 C1966.02779,873.6093 1871.54372,961.055257 1770.6406,980.375242 C1714.18168,991.185468 1666.90118,995.9188 1617.80171,980.548644 C1630.19668,1066.40671 1640.9374,1121.25988 1581.42558,1220.22057 C1545.61145,1279.775 1487.65667,1306.31368 1432.48195,1327.43257 C1375.51117,1349.23892 1343.19727,1349.03683 1273.58881,1346.18466 C1178.89104,1342.30446 1129.47863,1277.27438 1123.69538,1216.2242 C1110.28364,1074.64493 1215.13291,1025.49057 1218.53467,1015.35919 C1222.78196,1002.70962 1151.18053,1116.86813 1189.38231,1229.35294 C1210.06517,1290.25346 1276.47952,1305.68777 1365.75252,1284.8964 C1450.93466,1265.05776 1499.55943,1240.6631 1545.37867,1168.93889 C1585.64155,1105.91246 1556.60902,974.526188 1537.11535,967.265902 C1437.30714,930.093021 1293.60204,846.206529 1169.43924,888.786293 C1059.56273,926.466792 1070.3314,947.344581 1018.61786,1024.85773 C957.71956,1116.13787 832,1229.35294 832,1229.35294 C832,1229.35294 909.677475,1134.44423 943.792267,1054.41758 C974.164715,983.169736 991.288751,908.294893 1073.33456,850.281422 C1126.7242,812.530334 1193.51395,780.048137 1283.65162,820.129698 C1213.40201,722.245668 1280.78252,651.784379 1388.41208,646.162212 C1487.89432,640.965632 1524.03058,738.484871 1524.03058,738.484871 C1524.03058,738.484871 1315.91611,658.705689 1335.20243,770.455932 C1343.8601,820.620846 1476.85355,877.537016 1646.72332,912.764583 Z M1710.72749,1.25055521e-12 C1178.30262,479.960755 686.45476,1005.83677 241.803165,1572.26791 C774.228044,1092.30715 1266.0759,566.431132 1710.72749,5.68434189e-14 L1710.72749,1.25055521e-12 Z" id="Sign" fill="#000000" filter="url(#filter-1)" sketch:type="MSShapeGroup"></path>
                <path d="M638.59,949.656 L638.59,745.58 L546.658,745.58 L546.658,878.588 C521.23,881.848 508.19,882.5 488.63,882.5 C439.73,882.5 427.342,854.464 427.342,820.56 L427.342,671.252 C427.342,637.348 439.73,611.92 488.63,611.92 C519.926,611.92 577.954,616.484 615.77,622.352 L627.506,536.94 C590.342,529.768 538.834,523.248 488.63,523.248 C383.006,523.248 329.542,576.06 329.542,656.256 L329.542,837.512 C329.542,916.404 383.006,970.52 488.63,970.52 C538.834,970.52 590.994,963.348 638.59,949.656 L638.59,949.656 Z M968.502,838.164 L968.502,771.66 C968.502,702.548 945.682,639.956 840.058,639.956 C734.434,639.956 703.79,698.636 703.79,767.096 L703.79,841.424 C703.79,919.664 742.91,970.52 845.926,970.52 C890.262,970.52 936.554,960.74 965.242,950.308 L951.55,879.892 C923.514,888.368 884.394,893.584 855.054,893.584 C812.022,893.584 797.678,883.804 797.678,847.292 L797.678,838.164 L968.502,838.164 Z M879.83,767.748 L797.678,767.748 L797.678,754.056 C797.678,731.888 808.11,713.632 840.71,713.632 C873.31,713.632 879.83,731.888 879.83,754.056 L879.83,767.748 Z M1285.374,838.164 L1285.374,771.66 C1285.374,702.548 1262.554,639.956 1156.93,639.956 C1051.306,639.956 1020.662,698.636 1020.662,767.096 L1020.662,841.424 C1020.662,919.664 1059.782,970.52 1162.798,970.52 C1207.134,970.52 1253.426,960.74 1282.114,950.308 L1268.422,879.892 C1240.386,888.368 1201.266,893.584 1171.926,893.584 C1128.894,893.584 1114.55,883.804 1114.55,847.292 L1114.55,838.164 L1285.374,838.164 Z M1196.702,767.748 L1114.55,767.748 L1114.55,754.056 C1114.55,731.888 1124.982,713.632 1157.582,713.632 C1190.182,713.632 1196.702,731.888 1196.702,754.056 L1196.702,767.748 Z M1447.722,964 L1447.722,503.688 L1353.834,516.728 L1353.834,964 L1447.722,964 Z M1460.11,804.26 L1544.87,964 L1645.278,964 L1557.91,804.26 L1641.366,646.476 L1540.958,646.476 L1460.11,804.26 Z M503.074,1191.98 C503.074,1165.208 500.314,1156.928 461.95,1148.372 C445.942,1144.784 444.838,1143.68 444.838,1135.4 C444.838,1129.328 447.598,1126.292 459.19,1126.292 C469.678,1126.292 484.306,1127.948 496.174,1130.156 L499.762,1099.244 C487.894,1096.208 469.126,1094.828 458.914,1094.828 C418.618,1094.828 407.578,1106.696 407.578,1135.124 C407.578,1160.24 410.614,1169.072 443.182,1177.076 C464.71,1182.32 464.986,1183.424 464.986,1191.98 C464.986,1199.984 463.054,1203.296 451.186,1203.296 C436.282,1203.296 421.654,1200.536 410.614,1197.224 L404.266,1226.756 C417.514,1231.172 438.49,1234.76 453.118,1234.76 C491.482,1234.76 503.074,1219.58 503.074,1191.98 Z M604.918,1229.792 L600.226,1199.708 C594.43,1201.64 588.082,1202.192 583.666,1202.192 C578.698,1202.192 575.386,1200.26 575.386,1194.74 L575.386,1129.604 L603.814,1129.604 L606.022,1097.588 L575.386,1097.588 L575.386,1059.776 L535.642,1065.296 L535.642,1097.588 L517.426,1097.588 L517.426,1129.604 L535.642,1129.604 L535.642,1200.26 C535.642,1225.1 550.546,1234.76 576.214,1234.76 C585.322,1234.76 596.086,1232.828 604.918,1229.792 L604.918,1229.792 Z M735.19,1232 L735.19,1146.164 C735.19,1108.904 724.978,1094.828 678.334,1094.828 C662.878,1094.828 642.73,1097.588 630.034,1101.452 L635.278,1131.26 C647.974,1128.776 659.842,1127.396 671.71,1127.396 C692.962,1127.396 695.446,1132.088 695.446,1145.888 L695.446,1156.1 L666.466,1156.1 C638.866,1156.1 626.446,1166.864 626.446,1193.912 C626.446,1216.82 636.658,1234.76 661.498,1234.76 C670.606,1234.76 684.406,1232 699.862,1223.444 L702.622,1232 L735.19,1232 Z M695.446,1199.156 C689.374,1201.916 683.578,1203.848 675.298,1203.848 C667.57,1203.848 664.534,1200.812 664.534,1193.36 C664.534,1185.908 667.846,1183.7 676.402,1183.7 L695.446,1183.7 L695.446,1199.156 Z M827.65,1286.372 L844.762,1232 L886.99,1097.588 L846.694,1097.588 L819.37,1192.808 L792.046,1097.588 L751.75,1097.588 L793.15,1232 L805.846,1232 L790.114,1286.372 L827.65,1286.372 Z M1081.018,1232 L1081.018,1137.884 C1081.018,1111.94 1073.014,1094.828 1050.106,1094.828 C1034.65,1094.828 1013.122,1099.796 996.562,1107.8 L992.422,1097.588 L962.89,1097.588 L962.89,1232 L1002.634,1232 L1002.634,1143.128 C1011.19,1138.436 1024.438,1133.468 1031.614,1133.468 C1038.514,1133.468 1041.274,1137.056 1041.274,1143.128 L1041.274,1232 L1081.018,1232 Z M1155.262,1080.752 L1155.262,1038.524 L1115.518,1038.524 L1115.518,1080.752 L1155.262,1080.752 Z M1155.262,1232 L1155.262,1097.588 L1115.518,1097.588 L1115.518,1232 L1155.262,1232 Z M1182.862,1154.996 C1182.862,1171.004 1188.382,1182.596 1199.974,1189.496 C1193.35,1196.12 1188.382,1203.296 1188.382,1214.06 C1188.382,1232.552 1198.87,1236.416 1217.086,1238.348 C1233.646,1240.004 1236.13,1240.28 1251.31,1241.66 C1259.314,1242.488 1261.798,1243.868 1261.798,1249.112 C1261.798,1257.944 1253.518,1258.772 1232.818,1258.772 C1220.95,1258.772 1204.666,1257.116 1188.658,1253.252 L1182.862,1282.232 C1200.526,1286.924 1223.158,1289.132 1236.406,1289.132 C1278.082,1289.132 1298.23,1279.196 1298.23,1246.904 C1298.23,1223.72 1288.294,1215.992 1265.662,1214.06 C1255.726,1213.232 1250.206,1212.68 1232.266,1210.748 C1229.782,1210.472 1227.85,1208.264 1227.85,1205.228 C1227.85,1201.364 1230.886,1199.432 1233.646,1197.776 L1237.786,1197.776 C1274.77,1197.776 1292.71,1180.664 1292.71,1154.996 L1292.71,1138.712 C1292.434,1132.64 1291.33,1126.568 1289.122,1121.324 L1302.646,1116.356 L1302.646,1097.588 L1260.694,1097.588 C1254.07,1095.932 1246.618,1094.828 1237.786,1094.828 C1198.318,1094.828 1183.414,1111.664 1182.862,1138.712 L1182.862,1154.996 Z M1237.786,1166.312 C1224.814,1166.312 1219.846,1162.172 1219.846,1153.064 L1219.846,1140.368 C1219.846,1131.536 1224.538,1126.292 1237.786,1126.292 C1251.034,1126.292 1255.726,1131.536 1255.726,1140.368 L1255.726,1153.064 C1255.726,1162.172 1250.758,1166.312 1237.786,1166.312 L1237.786,1166.312 Z M1442.854,1232 L1442.854,1137.884 C1442.854,1111.94 1434.85,1094.828 1411.942,1094.828 C1396.486,1094.828 1380.202,1099.796 1363.918,1107.248 L1363.918,1037.144 L1324.726,1042.664 L1324.726,1232 L1364.47,1232 L1364.47,1143.404 C1373.026,1138.988 1386.274,1133.468 1393.45,1133.468 C1400.35,1133.468 1403.11,1137.056 1403.11,1143.128 L1403.11,1232 L1442.854,1232 Z M1551.046,1229.792 L1546.354,1199.708 C1540.558,1201.64 1534.21,1202.192 1529.794,1202.192 C1524.826,1202.192 1521.514,1200.26 1521.514,1194.74 L1521.514,1129.604 L1549.942,1129.604 L1552.15,1097.588 L1521.514,1097.588 L1521.514,1059.776 L1481.77,1065.296 L1481.77,1097.588 L1463.554,1097.588 L1463.554,1129.604 L1481.77,1129.604 L1481.77,1200.26 C1481.77,1225.1 1496.674,1234.76 1522.342,1234.76 C1531.45,1234.76 1542.214,1232.828 1551.046,1229.792 L1551.046,1229.792 Z" id="Geek" fill="#FFFFFF" filter="url(#filter-2)" sketch:type="MSShapeGroup"></path>
            </g>
        </g>
    </g>
</svg>